<?xml version="1.0" encoding="utf-8"?>
<svg width="533" height="100" viewBox="0 0 533 100" fill="none" xmlns="http://www.w3.org/2000/svg">
  <g>
    <path d="M72.7867 0C72.7867 0 58.4103 34.4132 58.4103 34.4132L44.034 0L28.7528 0L36.3934 18.2662L29.6576 34.4132L15.2812 0L0 0L29.6576 70.6429L44.034 36.4316L58.4103 70.6429L88.0679 0C88.0679 0 72.7867 0 72.7867 0ZM82.0359 45.4133C82.0359 59.8446 93.7984 71.6521 108.175 71.6521C108.175 71.6521 134.314 71.6521 134.314 71.6521C134.314 71.6521 134.314 53.184 134.314 45.4133C134.314 30.9819 122.551 19.1745 108.175 19.1745C93.7984 19.1745 82.0359 30.9819 82.0359 45.4133ZM96.1104 45.4133C96.1104 38.7527 101.539 33.3031 108.174 33.3031C114.81 33.3031 120.239 38.7527 120.239 45.4133C120.239 48.3399 120.239 57.5235 120.239 57.5235C120.239 57.5235 111.894 57.5235 108.174 57.5235C101.539 57.5235 96.1104 52.0739 96.1104 45.4133ZM138.335 70.6429C138.335 70.6429 152.41 70.6429 152.41 70.6429C152.41 70.6429 152.41 39.0554 152.41 39.0554C152.41 36.2297 153.717 34.3122 157.537 34.3122C157.537 34.3122 168.093 34.3122 168.093 34.3122L168.093 20.1836C168.093 20.1836 157.537 20.1836 157.537 20.1836C144.166 20.1836 138.335 25.0277 138.335 37.4407C138.335 37.4407 138.335 70.6429 138.335 70.6429ZM223.689 51.4684C224.091 49.5509 224.392 47.4316 224.392 45.4133C224.392 30.881 212.73 19.1745 198.253 19.1745C183.776 19.1745 172.114 30.881 172.114 45.4133C172.114 59.9455 183.776 71.6521 198.253 71.6521C205.391 71.6521 211.926 68.8264 216.651 64.1841C216.651 64.1841 204.889 55.4042 204.889 55.4042C202.978 56.7161 200.666 57.5235 198.253 57.5235C193.83 57.5235 189.909 55.1014 187.798 51.4684C187.798 51.4684 223.689 51.4684 223.689 51.4684ZM187.798 39.3582C189.909 35.7251 193.83 33.3031 198.253 33.3031C202.677 33.3031 206.497 35.7251 208.608 39.3582C208.608 39.3582 187.798 39.3582 187.798 39.3582ZM280.691 45.4133C280.691 27.9544 268.426 19.2754 256.06 19.2754C251.335 19.2754 246.51 20.4865 242.488 23.1103C242.488 23.1103 242.488 0 242.488 0L228.414 0L228.414 70.6429L242.488 70.6429C242.488 70.6429 242.488 45.4133 242.488 45.4133C242.488 38.7527 247.917 33.3031 254.552 33.3031C261.188 33.3031 266.617 38.7527 266.617 45.4133C266.617 45.4133 266.617 70.6429 266.617 70.6429L280.691 70.6429C280.691 70.6429 280.691 45.4133 280.691 45.4133ZM284.713 45.4133C284.713 59.8446 296.475 71.6521 310.852 71.6521C325.228 71.6521 336.991 59.8446 336.991 45.4133C336.991 30.9819 325.228 19.1745 310.852 19.1745C296.475 19.1745 284.713 30.9819 284.713 45.4133ZM298.788 45.4133C298.788 38.7527 304.217 33.3031 310.852 33.3031C317.487 33.3031 322.916 38.7527 322.916 45.4133C322.916 52.0739 317.487 57.5235 310.852 57.5235C304.217 57.5235 298.788 52.0739 298.788 45.4133ZM341.012 43.8995C341.012 61.863 349.758 70.6429 367.653 70.6429C367.653 70.6429 394.295 70.6429 394.295 70.6429L394.295 20.1836L380.22 20.1836L380.22 56.5143C380.22 56.5143 367.653 56.5143 367.653 56.5143C359.208 56.5143 355.086 52.3766 355.086 43.8995C355.086 43.8995 355.086 20.1836 355.086 20.1836L341.012 20.1836C341.012 20.1836 341.012 43.8995 341.012 43.8995ZM414.905 20.1836C392.787 20.1836 392.787 52.4776 414.905 52.4776C414.905 52.4776 436.017 52.4776 436.017 52.4776C438.731 52.4776 438.731 56.5143 436.017 56.5143C436.017 56.5143 402.84 56.5143 402.84 56.5143L402.84 70.6429C402.84 70.6429 436.017 70.6429 436.017 70.6429C458.134 70.6429 458.134 38.349 436.017 38.349C436.017 38.349 414.905 38.349 414.905 38.349C412.19 38.349 412.19 34.3122 414.905 34.3122C414.905 34.3122 448.081 34.3122 448.081 34.3122L448.081 20.1836C448.081 20.1836 414.905 20.1836 414.905 20.1836ZM508.2 51.4684C508.602 49.5509 508.904 47.4316 508.904 45.4133C508.904 30.881 497.242 19.1745 482.765 19.1745C468.288 19.1745 456.626 30.881 456.626 45.4133C456.626 59.9455 468.288 71.6521 482.765 71.6521C489.903 71.6521 496.438 68.8264 501.163 64.1841C501.163 64.1841 489.4 55.4042 489.4 55.4042C487.49 56.7161 485.178 57.5235 482.765 57.5235C478.342 57.5235 474.421 55.1014 472.31 51.4684C472.31 51.4684 508.2 51.4684 508.2 51.4684ZM472.31 39.3582C474.421 35.7251 478.342 33.3031 482.765 33.3031C487.189 33.3031 491.009 35.7251 493.12 39.3582C493.12 39.3582 472.31 39.3582 472.31 39.3582Z" fill="#FFFFFF" transform="translate(0 28.348)" />
    <path d="M46.1436 26.4614C46.1436 26.4614 26.3117 26.4614 26.3117 26.4614L26.3117 46.32L19.7828 46.32L19.7828 26.4614L0 26.4614L0 19.8584L19.7828 19.8584L19.7828 0L26.3117 0L26.3117 19.8584L46.1436 19.8584C46.1436 19.8584 46.1436 26.4614 46.1436 26.4614Z" fill="#FFFFFF" fill-rule="evenodd" transform="translate(486.857 0)" />
  </g>
</svg>